<svg xmlns="http://www.w3.org/2000/svg"  viewBox="0 0 64 64" width="64px" height="64px"><path fill="#acb7d0" d="M61,25.75c0,8.5-4.05,13.49-7.5,16.21c-2.09,1.64-3.95,2.44-4.58,2.68l-11.77,4.85 c-0.14,0.06-0.2,0.23-0.12,0.37l1.65,2.53c0.59,0.94,0.82,1.83,0.82,2.88c0,3.82-3.35,4.73-5.09,4.73c-2.87,0-4.02-1.96-4.97-3.47 l-6.13-9.68c-0.65-1.03-0.21-2.39,0.91-2.85l21.07-8.67C46.63,34.8,51,32.54,51,25.75C51,20,46,13.5,37.5,13.5 c-3.25,0-7.5,1.75-7.5,1.75l-13.1,5.37C13,22.23,13,23.71,13,24.5c0,0.04,0.19,3.5,4.5,3.5c0.44,0,1.77-0.2,3.6-0.95l13-5.38 C36.8,20.56,41,22,41,26.12c0,2.26-1.31,3.07-3.29,3.88l-8.09,3.34l-4.72,1.95C22.23,36.39,19.1,37,17,37C8.5,37,3,31.14,3,24.5 c0-4.09,1.75-9.69,10.1-13.12c0,0,0,0,4.53-1.86C19.52,8.73,22.2,7.63,26,6.06c1.23-0.51,2.47-1.02,4.09-1.41 C31.73,4.26,33.74,4,36.5,4C52.5,4,61,16,61,25.75z"/><path fill="#bfc9db" d="M35.25,9.03C35.65,9.01,36.06,9,36.5,9c8.95,0,14.683,4.528,17.476,9.547 c1.23,2.211,3.953,3.105,6.292,2.14l0.004-0.002C57.909,12.289,49.797,4,36.5,4c-2.76,0-4.77,0.26-6.41,0.65 C30.41,7.2,32.63,9.12,35.25,9.03z"/><path fill="#9ba7bc" d="M34.96,59.97c-0.2,0.02-0.38,0.03-0.55,0.03c-2.87,0-4.02-1.96-4.97-3.47l-6.13-9.68 c-0.42-0.66-0.39-1.45-0.01-2.06c2.16-0.77,4.64,0.02,5.91,2.04l5.38,8.5C35.51,56.77,35.59,58.51,34.96,59.97z"/><path fill="#9ba7bc" d="M29.62,33.34l-4.72,1.95C22.23,36.39,19.1,37,17,37C8.5,37,3,31.14,3,24.5 c0-4.09,1.75-9.69,10.1-13.12c0,0,0,0,4.53-1.86c1.04,2.54-0.17,5.45-2.71,6.52C10.26,17.98,8,20.74,8,24.5c0,3.73,3.09,7.5,9,7.5 c1.38,0,3.88-0.46,6-1.33l0.1-0.04C25.65,29.58,28.56,30.8,29.62,33.34z"/><g><path fill="#8d6c9f" d="M34.41,61c-3.342,0-4.782-2.288-5.736-3.802l-6.208-9.811c-0.468-0.741-0.583-1.643-0.317-2.477 s0.882-1.503,1.692-1.836l21.079-8.678c1.192-0.47,5.08-2.481,5.08-8.646c0-5.411-4.779-11.25-12.5-11.25 c-3.017,0-7.079,1.658-7.119,1.675l-13.098,5.374C14,22.901,14,23.941,14,24.5c0.017,0.208,0.27,2.5,3.5,2.5 c0.281,0,1.475-0.161,3.215-0.878l13.001-5.375c1.851-0.761,4.139-0.521,5.83,0.612c1.58,1.059,2.45,2.75,2.45,4.765 c0,2.945-1.93,3.986-3.906,4.8l-12.804,5.293C22.657,37.301,19.405,38,17,38C8.449,38,2,32.196,2,24.5 c0-4.396,1.859-10.401,10.715-14.048l12.904-5.313C28.181,4.084,30.813,3,36.5,3C52.25,3,62,14.809,62,25.75 c0,14.152-10.596,18.998-12.719,19.825L38.365,50.07l1.153,1.774c0.681,1.079,0.982,2.132,0.982,3.426 C40.5,59.207,37.343,61,34.41,61z M45.662,36.253l-21.059,8.67c-0.359,0.147-0.497,0.436-0.548,0.594 c-0.05,0.159-0.104,0.473,0.103,0.801l6.21,9.814C31.254,57.542,32.172,59,34.41,59c0.418,0,4.09-0.104,4.09-3.729 c0-0.906-0.199-1.608-0.666-2.348l-1.638-2.522c-0.205-0.325-0.254-0.708-0.141-1.061s0.374-0.636,0.717-0.777l11.765-4.845 C50.466,42.967,60,38.601,60,25.75C60,15.771,51.015,5,36.5,5c-5.291,0-7.628,0.962-10.103,1.981l-12.92,5.32 C5.644,15.526,4,20.715,4,24.5C4,31.056,9.589,36,17,36c1.773,0,4.788-0.504,7.523-1.631l12.804-5.293 c1.97-0.811,2.669-1.379,2.669-2.951c0-1.7-0.85-2.626-1.563-3.104c-1.135-0.76-2.724-0.931-3.955-0.425l-13,5.375 C19.505,28.783,18.049,29,17.5,29c-4.49,0-5.5-3.333-5.5-4.5c0-1.453,0.538-3.16,4.523-4.801l13.098-5.374 C29.8,14.251,34.091,12.5,37.5,12.5c8.956,0,14.5,6.878,14.5,13.25C52,33.165,47.159,35.661,45.662,36.253z"/><path fill="#8d6c9f" d="M16.277,48.794c-0.393,0-0.766-0.233-0.925-0.62c-0.21-0.511,0.033-1.095,0.544-1.306l1.849-0.762 c0.51-0.209,1.095,0.033,1.306,0.544c0.21,0.511-0.033,1.095-0.544,1.306l-1.849,0.762C16.533,48.77,16.404,48.794,16.277,48.794z"/><path fill="#8d6c9f" d="M18.852,52.863c-0.393,0-0.766-0.233-0.925-0.62c-0.21-0.511,0.033-1.095,0.544-1.306l1.849-0.762 c0.509-0.21,1.095,0.033,1.306,0.544c0.21,0.511-0.033,1.095-0.544,1.306l-1.849,0.762C19.107,52.838,18.979,52.863,18.852,52.863z"/><path fill="#8d6c9f" d="M21.426,56.932c-0.393,0-0.766-0.233-0.925-0.62c-0.21-0.511,0.033-1.095,0.544-1.306l1.85-0.762 c0.509-0.211,1.095,0.033,1.306,0.544c0.21,0.511-0.033,1.095-0.544,1.306l-1.85,0.762C21.682,56.907,21.553,56.932,21.426,56.932z"/><path fill="#8d6c9f" d="M24,61c-0.393,0-0.766-0.233-0.925-0.62c-0.21-0.511,0.033-1.095,0.544-1.306l1.849-0.762 c0.509-0.21,1.095,0.033,1.306,0.544c0.21,0.511-0.033,1.095-0.544,1.306l-1.849,0.762C24.256,60.976,24.127,61,24,61z"/><path fill="#8d6c9f" d="M53.977,19.547c-0.351,0-0.692-0.185-0.875-0.514c-1.364-2.452-4.651-6.807-11.336-8.421 c-0.537-0.13-0.867-0.67-0.737-1.207s0.673-0.864,1.207-0.737c5.504,1.33,9.984,4.665,12.615,9.393 c0.269,0.483,0.095,1.092-0.388,1.36C54.308,19.507,54.141,19.547,53.977,19.547z"/><path fill="#8d6c9f" d="M38.001,10.048c-0.02,0-0.041,0-0.061-0.002C37.47,10.018,36.991,10,36.5,10l-0.482,0.012 C35.481,10.001,35.01,9.582,35,9.029c-0.009-0.552,0.43-1.008,0.982-1.018l0.182-0.005c0.604-0.019,1.273,0.005,1.895,0.043 c0.551,0.033,0.972,0.506,0.938,1.058C38.966,9.639,38.526,10.048,38.001,10.048z"/></g></svg>
