<?xml version="1.0" encoding="utf-8"?>
<svg version="1.0" id="Layer_1" xmlns="http://www.w3.org/2000/svg" xmlns:xlink="http://www.w3.org/1999/xlink" x="0px" y="0px"
	 viewBox="0 0 963.7 698.6" style="enable-background:new 0 0 963.7 698.6;" xml:space="preserve" width="256px" height="255px">
<style type="text/css">
	.st0{fill:#EF3E2B;}
</style>
<polygon class="st0" points="97.8,29.7 97.8,32.6 125.7,53.8 149.7,35.1 149.7,42.7 125.7,63.8 100.7,47.8 97.8,49.9 97.8,59.5 
	125.7,80.8 149.7,62.1 149.7,69.8 125.7,90.8 100.7,72.1 97.8,74.1 97.8,76.2 125.7,97.5 153.9,76.2 153.9,63.8 152.8,62.6 
	125.7,84.9 102.3,63.8 102.3,53.6 125.7,64.5 153.9,51.3 153.9,29.3 152.8,28.1 125.7,46.9 105.2,30.4 125.7,11.4 144.9,27.7 
	147.8,26.2 147.8,21.4 125.7,4.9 "/>
<path d="M34.3,178.1c-4.7,0-8.4-3.8-8.4-8.7s3.3-8.7,8.4-8.7c4.7,0,8.4,3.8,8.4,8.7S38.9,178.1,34.3,178.1 M43.4,185.4v-25.8
	c-0.5,0-1.5-0.3-2.5-0.3c-9.1-0.2-17.6,4.6-22.3,12.5c-0.3,0.8-1.2,1.1-1.9,0.9c0,0-0.1,0-0.1,0c-0.8-0.3-1.4-1-1.5-1.9v-12.9
	H0v47.8h17.9v-18.3c0-0.5,0.1-1,0.3-1.3c0.2-0.4,0.5-0.7,0.9-0.9c3.5-1.5,7.4-2.3,11.4-2.3c9.5,0,17.1,7.1,17.1,17.1
	c0,9.1-7.3,16.7-16.4,17.1c-0.6,0.1-1.1,0.2-1.6,0.2c-0.8,0-1.6-0.3-2.2-0.7c-0.4-0.2-0.7-0.5-1-0.8c-0.3-0.4-0.6-0.7-0.9-1
	c-0.6-0.7-1-1.6-1-2.5v-11.9h-9.5v36.1c0,0.6-0.3,1.2-0.9,1.5c-0.5,0.2-1.1,0.1-1.5-0.3c-4.7-5.8-12.3-9.3-20.3-9.1
	c-16.3,0.4-29.5,14-29.5,30.3c0,16.8,13.7,30.5,30.5,30.5c13.5,0,24.8-8.6,28.8-20.5c0.4-1.2,1.5-2,2.8-1.6c1.2,0.4,2,1.5,1.6,2.8
	c-4.8,16.3-20.4,27.9-38.1,27.6c-23.2-0.4-41.9-19.7-41.9-42.9c0-23.8,19.3-43.1,43.1-43.1c14.4,0,27.4,7,35.3,18.5
	c0.6,0.8,0.5,2-0.3,2.6c-0.8,0.6-2,0.5-2.6-0.3c-7.3-9.4-17.8-15.2-29.4-15.6c-19.9-0.6-36.1,15.5-36.6,35.4
	c-0.5,22.3,17.7,40.5,40,41c0.8,0,1.5,0.7,1.5,1.5v11.9c0,0.8-0.7,1.5-1.5,1.5h-4.2v18.3H43.4z"/>
<path d="M68.1,178.1c-4.7,0-8.4-3.8-8.4-8.7s3.3-8.7,8.4-8.7c4.7,0,8.4,3.8,8.4,8.7S72.8,178.1,68.1,178.1 M77.3,185.4v-25.8
	c-0.5,0-1.5-0.3-2.5-0.3c-9.1-0.2-17.6,4.6-22.3,12.5c-0.3,0.8-1.2,1.1-1.9,0.9c0,0-0.1,0-0.1,0c-0.8-0.3-1.4-1-1.5-1.9v-12.9
	H49.3v47.8H67v-18.3c0-0.5,0.1-1,0.3-1.3c0.2-0.4,0.5-0.7,0.9-0.9c3.5-1.5,7.4-2.3,11.4-2.3c9.5,0,17.1,7.1,17.1,17.1
	c0,9.1-7.3,16.7-16.4,17.1c-0.6,0.1-1.1,0.2-1.6,0.2c-0.8,0-1.6-0.3-2.2-0.7c-0.4-0.2-0.7-0.5-1-0.8c-0.3-0.4-0.6-0.7-0.9-1
	c-0.6-0.7-1-1.6-1-2.5v-11.9h-9.5v36.1c0,0.6-0.3,1.2-0.9,1.5c-0.5,0.2-1.1,0.1-1.5-0.3c-4.7-5.8-12.3-9.3-20.3-9.1
	c-16.3,0.4-29.5,14-29.5,30.3c0,16.8,13.7,30.5,30.5,30.5c13.5,0,24.8-8.6,28.8-20.5c0.4-1.2,1.5-2,2.8-1.6c1.2,0.4,2,1.5,1.6,2.8
	c-4.8,16.3-20.4,27.9-38.1,27.6c-23.2-0.4-41.9-19.7-41.9-42.9c0-23.8,19.3-43.1,43.1-43.1c14.4,0,27.4,7,35.3,18.5
	c0.6,0.8,0.5,2-0.3,2.6c-0.8,0.6-2,0.5-2.6-0.3c-7.3-9.4-17.8-15.2-29.4-15.6c-19.9-0.6-36.1,15.5-36.6,35.4
	c-0.5,22.3,17.7,40.5,40,41c0.8,0,1.5,0.7,1.5,1.5v11.9c0,0.8-0.7,1.5-1.5,1.5H73v18.3H77.3z"/>
<path d="M101.9,178.1c-4.7,0-8.4-3.8-8.4-8.7s3.3-8.7,8.4-8.7c4.7,0,8.4,3.8,8.4,8.7S106.6,178.1,101.9,178.1 M111.1,185.4v-25.8
	c-0.5,0-1.5-0.3-2.5-0.3c-9.1-0.2-17.6,4.6-22.3,12.5c-0.3,0.8-1.2,1.1-1.9,0.9c0,0-0.1,0-0.1,0c-0.8-0.3-1.4-1-1.5-1.9v-12.9
	H93.1v47.8h17.9v-18.3c0-0.5,0.1-1,0.3-1.3c0.2-0.4,0.5-0.7,0.9-0.9c3.5-1.5,7.4-2.3,11.4-2.3c9.5,0,17.1,7.1,17.1,17.1
	c0,9.1-7.3,16.7-16.4,17.1c-0.6,0.1-1.1,0.2-1.6,0.2c-0.8,0-1.6-0.3-2.2-0.7c-0.4-0.2-0.7-0.5-1-0.8c-0.3-0.4-0.6-0.7-0.9-1
	c-0.6-0.7-1-1.6-1-2.5v-11.9h-9.5v36.1c0,0.6-0.3,1.2-0.9,1.5c-0.5,0.2-1.1,0.1-1.5-0.3c-4.7-5.8-12.3-9.3-20.3-9.1
	c-16.3,0.4-29.5,14-29.5,30.3c0,16.8,13.7,30.5,30.5,30.5c13.5,0,24.8-8.6,28.8-20.5c0.4-1.2,1.5-2,2.8-1.6c1.2,0.4,2,1.5,1.6,2.8
	c-4.8,16.3-20.4,27.9-38.1,27.6c-23.2-0.4-41.9-19.7-41.9-42.9c0-23.8,19.3-43.1,43.1-43.1c14.4,0,27.4,7,35.3,18.5
	c0.6,0.8,0.5,2-0.3,2.6c-0.8,0.6-2,0.5-2.6-0.3c-7.3-9.4-17.8-15.2-29.4-15.6c-19.9-0.6-36.1,15.5-36.6,35.4
	c-0.5,22.3,17.7,40.5,40,41c0.8,0,1.5,0.7,1.5,1.5v11.9c0,0.8-0.7,1.5-1.5,1.5H106v18.3H111.1z"/>
<path d="M120.6,131.5c0-9.9,7.6-17.8,17.1-17.8s17.1,7.9,17.1,17.8c0,9.9-7.6,17.8-17.1,17.8S120.6,141.4,120.6,131.5
	 M120.6,163.9c-18.3,0-33.1-15.8-33.1-35.3c0-19.5,14.8-35.3,33.1-35.3c11.5,0,21.9,6,27.9,15.3c0.4,0.6,0.3,1.5-0.2,2.1
	c-0.6,0.4-1.5,0.3-2.1-0.2c-5.1-7.2-12.7-11.5-20.6-11.5c-14.1,0-25.5,12-25.5,26.9c0,14.9,11.4,26.9,25.5,26.9
	c8.3,0,15.8-4.5,20.6-11.6c0.4-0.5,1-0.7,1.6-0.3c0.5,0.4,0.7,1,0.3,1.6C142.7,157.7,133.3,163.9,120.6,163.9"/>
<path d="M174.5,178.1c-4.7,0-8.4-3.8-8.4-8.7s3.3-8.7,8.4-8.7c4.7,0,8.4,3.8,8.4,8.7S179.2,178.1,174.5,178.1 M183.7,185.4v-25.8
	c-0.5,0-1.5-0.3-2.5-0.3c-9.1-0.2-17.6,4.6-22.3,12.5c-0.3,0.8-1.2,1.1-1.9,0.9c0,0-0.1,0-0.1,0c-0.8-0.3-1.4-1-1.5-1.9v-12.9
	h-17.8v47.8h17.9v-18.3c0-0.5,0.1-1,0.3-1.3c0.2-0.4,0.5-0.7,0.9-0.9c3.5-1.5,7.4-2.3,11.4-2.3c9.5,0,17.1,7.1,17.1,17.1
	c0,9.1-7.3,16.7-16.4,17.1c-0.6,0.1-1.1,0.2-1.6,0.2c-0.8,0-1.6-0.3-2.2-0.7c-0.4-0.2-0.7-0.5-1-0.8c-0.3-0.4-0.6-0.7-0.9-1
	c-0.6-0.7-1-1.6-1-2.5v-11.9h-9.5v36.1c0,0.6-0.3,1.2-0.9,1.5c-0.5,0.2-1.1,0.1-1.5-0.3c-4.7-5.8-12.3-9.3-20.3-9.1
	c-16.3,0.4-29.5,14-29.5,30.3c0,16.8,13.7,30.5,30.5,30.5c13.5,0,24.8-8.6,28.8-20.5c0.4-1.2,1.5-2,2.8-1.6c1.2,0.4,2,1.5,1.6,2.8
	c-4.8,16.3-20.4,27.9-38.1,27.6c-23.2-0.4-41.9-19.7-41.9-42.9c0-23.8,19.3-43.1,43.1-43.1c14.4,0,27.4,7,35.3,18.5
	c0.6,0.8,0.5,2-0.3,2.6c-0.8,0.6-2,0.5-2.6-0.3c-7.3-9.4-17.8-15.2-29.4-15.6c-19.9-0.6-36.1,15.5-36.6,35.4
	c-0.5,22.3,17.7,40.5,40,41c0.8,0,1.5,0.7,1.5,1.5v11.9c0,0.8-0.7,1.5-1.5,1.5h-4.2v18.3H183.7z"/>
<path d="M210.2,178.1c-4.7,0-8.4-3.8-8.4-8.7s3.3-8.7,8.4-8.7c4.7,0,8.4,3.8,8.4,8.7S214.9,178.1,210.2,178.1 M219.4,185.4v-25.8
	c-0.5,0-1.5-0.3-2.5-0.3c-9.1-0.2-17.6,4.6-22.3,12.5c-0.3,0.8-1.2,1.1-1.9,0.9c0,0-0.1,0-0.1,0c-0.8-0.3-1.4-1-1.5-1.9v-12.9
	H201.4v47.8h17.9v-18.3c0-0.5,0.1-1,0.3-1.3c0.2-0.4,0.5-0.7,0.9-0.9c3.5-1.5,7.4-2.3,11.4-2.3c9.5,0,17.1,7.1,17.1,17.1
	c0,9.1-7.3,16.7-16.4,17.1c-0.6,0.1-1.1,0.2-1.6,0.2c-0.8,0-1.6-0.3-2.2-0.7c-0.4-0.2-0.7-0.5-1-0.8c-0.3-0.4-0.6-0.7-0.9-1
	c-0.6-0.7-1-1.6-1-2.5v-11.9h-9.5v36.1c0,0.6-0.3,1.2-0.9,1.5c-0.5,0.2-1.1,0.1-1.5-0.3c-4.7-5.8-12.3-9.3-20.3-9.1
	c-16.3,0.4-29.5,14-29.5,30.3c0,16.8,13.7,30.5,30.5,30.5c13.5,0,24.8-8.6,28.8-20.5c0.4-1.2,1.5-2,2.8-1.6c1.2,0.4,2,1.5,1.6,2.8
	c-4.8,16.3-20.4,27.9-38.1,27.6c-23.2-0.4-41.9-19.7-41.9-42.9c0-23.8,19.3-43.1,43.1-43.1c14.4,0,27.4,7,35.3,18.5
	c0.6,0.8,0.5,2-0.3,2.6c-0.8,0.6-2,0.5-2.6-0.3c-7.3-9.4-17.8-15.2-29.4-15.6c-19.9-0.6-36.1,15.5-36.6,35.4
	c-0.5,22.3,17.7,40.5,40,41c0.8,0,1.5,0.7,1.5,1.5v11.9c0,0.8-0.7,1.5-1.5,1.5h-4.2v18.3H219.4z"/>
<path d="M265.1,178.1c-4.7,0-8.4-3.8-8.4-8.7s3.3-8.7,8.4-8.7c4.7,0,8.4,3.8,8.4,8.7S269.8,178.1,265.1,178.1 M274.3,185.4v-25.8
	c-0.5,0-1.5-0.3-2.5-0.3c-9.1-0.2-17.6,4.6-22.3,12.5c-0.3,0.8-1.2,1.1-1.9,0.9c0,0-0.1,0-0.1,0c-0.8-0.3-1.4-1-1.5-1.9v-12.9
	h-17.8v47.8h17.9v-18.3c0-0.5,0.1-1,0.3-1.3c0.2-0.4,0.5-0.7,0.9-0.9c3.5-1.5,7.4-2.3,11.4-2.3c9.5,0,17.1,7.1,17.1,17.1
	c0,9.1-7.3,16.7-16.4,17.1c-0.6,0.1-1.1,0.2-1.6,0.2c-0.8,0-1.6-0.3-2.2-0.7c-0.4-0.2-0.7-0.5-1-0.8c-0.3-0.4-0.6-0.7-0.9-1
	c-0.6-0.7-1-1.6-1-2.5v-11.9h-9.5v36.1c0,0.6-0.3,1.2-0.9,1.5c-0.5,0.2-1.1,0.1-1.5-0.3c-4.7-5.8-12.3-9.3-20.3-9.1
	c-16.3,0.4-29.5,14-29.5,30.3c0,16.8,13.7,30.5,30.5,30.5c13.5,0,24.8-8.6,28.8-20.5c0.4-1.2,1.5-2,2.8-1.6c1.2,0.4,2,1.5,1.6,2.8
	c-4.8,16.3-20.4,27.9-38.1,27.6c-23.2-0.4-41.9-19.7-41.9-42.9c0-23.8,19.3-43.1,43.1-43.1c14.4,0,27.4,7,35.3,18.5
	c0.6,0.8,0.5,2-0.3,2.6c-0.8,0.6-2,0.5-2.6-0.3c-7.3-9.4-17.8-15.2-29.4-15.6c-19.9-0.6-36.1,15.5-36.6,35.4
	c-0.5,22.3,17.7,40.5,40,41c0.8,0,1.5,0.7,1.5,1.5v11.9c0,0.8-0.7,1.5-1.5,1.5h-4.2v18.3H274.3z"/>
<path d="M291.1,178.1c-4.7,0-8.4-3.8-8.4-8.7s3.3-8.7,8.4-8.7c4.7,0,8.4,3.8,8.4,8.7S295.8,178.1,291.1,178.1 M300.3,185.4v-25.8
	c-0.5,0-1.5-0.3-2.5-0.3c-9.1-0.2-17.6,4.6-22.3,12.5c-0.3,0.8-1.2,1.1-1.9,0.9c0,0-0.1,0-0.1,0c-0.8-0.3-1.4-1-1.5-1.9v-12.9
	h-17.8v47.8h17.9v-18.3c0-0.5,0.1-1,0.3-1.3c0.2-0.4,0.5-0.7,0.9-0.9c3.5-1.5,7.4-2.3,11.4-2.3c9.5,0,17.1,7.1,17.1,17.1
	c0,9.1-7.3,16.7-16.4,17.1c-0.6,0.1-1.1,0.2-1.6,0.2c-0.8,0-1.6-0.3-2.2-0.7c-0.4-0.2-0.7-0.5-1-0.8c-0.3-0.4-0.6-0.7-0.9-1
	c-0.6-0.7-1-1.6-1-2.5v-11.9h-9.5v36.1c0,0.6-0.3,1.2-0.9,1.5c-0.5,0.2-1.1,0.1-1.5-0.3c-4.7-5.8-12.3-9.3-20.3-9.1
	c-16.3,0.4-29.5,14-29.5,30.3c0,16.8,13.7,30.5,30.5,30.5c13.5,0,24.8-8.6,28.8-20.5c0.4-1.2,1.5-2,2.8-1.6c1.2,0.4,2,1.5,1.6,2.8
	c-4.8,16.3-20.4,27.9-38.1,27.6c-23.2-0.4-41.9-19.7-41.9-42.9c0-23.8,19.3-43.1,43.1-43.1c14.4,0,27.4,7,35.3,18.5
	c0.6,0.8,0.5,2-0.3,2.6c-0.8,0.6-2,0.5-2.6-0.3c-7.3-9.4-17.8-15.2-29.4-15.6c-19.9-0.6-36.1,15.5-36.6,35.4
	c-0.5,22.3,17.7,40.5,40,41c0.8,0,1.5,0.7,1.5,1.5v11.9c0,0.8-0.7,1.5-1.5,1.5h-4.2v18.3H300.3z"/>
</svg>
