<?xml version="1.0" encoding="utf-8"?>
<!-- Generator: Adobe Illustrator 26.0.3, SVG Export Plug-In . SVG Version: 6.00 Build 0) -->
<svg version="1.0" id="Layer_1" xmlns="http://www.w3.org/2000/svg" xmlns:xlink="http://www.w3.org/1999/xlink" x="0px" y="0px"
	 width="256px" height="255px" viewBox="0 0 963.7 698.6" style="enable-background:new 0 0 963.7 698.6;" xml:space="preserve">
    <style type="text/css">
        .st0{fill:#EF3E2B;}
    </style>
    <polygon class="st0" points="367.6,203.8 367.6,210.7 473.6,270.4 568.7,217.1 568.7,238.8 473.6,292.6 373,235.4 367.6,238.3 
        367.6,279.8 473.6,339.4 568.7,286.2 568.7,307.4 473.6,361.1 373,303.9 367.6,306.9 367.6,314.3 473.6,373.9 579.5,314.3 
        579.5,272.9 574.6,269.9 473.6,327.1 378.9,272.9 378.9,251.7 473.6,304.9 579.5,245.2 579.5,204.3 574.6,201.4 473.6,258.6 
        383.8,207.8 473.6,157 548,198.9 554.4,195 554.4,189.5 473.6,143.7"/>
    <!-- More paths... -->
</svg>
