<?xml version="1.0" encoding="utf-8"?>
<!-- Uploaded to: SVG Repo, www.svgrepo.com, Generator: SVG Repo Mixer Tools -->
<svg width="800px" height="800px" viewBox="0 -141.54 1478.201 1478.201" xmlns="http://www.w3.org/2000/svg">
  <g transform="matrix(.569 0 0 .569 199.451 -82.735)">
    <linearGradient id="a" gradientUnits="userSpaceOnUse" x1="-2901.952" y1="923.573" x2="-2061.249" y2="1420.331" gradientTransform="matrix(.1234 0 0 -.1234 1158.33 1550.273)">
      <stop offset="0" stop-color="#909ca9"/>
      <stop offset="1" stop-color="#ededee"/>
    </linearGradient>
    <path fill="url(#a)" d="M1410.773 814.195l-286.9 93.683-249.599 110.161-69.829 18.435c-17.784 16.916-36.431 34.049-56.599 51.397-22.119 19.082-42.72 36.433-58.553 49.008-17.564 13.88-43.587 39.902-56.814 56.38-19.735 24.721-35.348 50.96-42.071 71.13-11.928 36.433-6.07 73.297 16.916 107.346 29.492 43.369 88.261 87.606 156.785 117.749 34.916 15.4 93.683 35.132 137.92 46.19 73.512 18.651 215.771 38.819 294.054 41.857 15.828.65 37.082.65 37.947 0 1.737-1.088 13.881-24.289 27.979-53.129 48.142-98.238 82.838-190.402 101.703-269.119 11.276-47.706 20.166-111.246 26.019-186.492 1.521-21.036 2.169-91.514.868-115.37-1.953-39.033-5.423-70.692-10.84-101.703-.868-4.555-1.088-8.676-.652-8.892.865-.65 3.467-1.517 38.815-11.712l-7.153-16.912v-.005h.004zm-65.49 38.386c2.602 0 9.539 66.573 11.273 108.646.436 8.89.216 14.745-.216 14.745-1.733 0-36.649-20.599-61.583-36.212-21.687-13.663-62.888-40.988-69.393-46.192-2.173-1.517-1.957-1.733 15.828-7.807 30.14-10.194 101.706-33.18 104.091-33.18zm-146.161 48.143c1.953 0 6.937 2.816 18.865 10.191 44.671 27.974 105.393 61.805 131.415 73.083 8.022 3.469 8.887 2.166-9.542 14.746-39.468 26.889-88.697 53.344-148.983 80.018-10.624 4.771-19.514 8.456-19.73 8.456-.432 0 .865-5.418 2.598-11.925 14.53-54.001 22.772-108.647 23.208-152.452.216-21.687.216-21.687 2.169-22.334-.436.217-.22.217 0 .217zm-30.142 11.492c1.297 1.299.432 49.877-1.304 63.104-3.903 31.662-9.975 61.153-19.947 94.335-1.521 5.884-3.03 11.7-4.77 17.144-2.381 8.02-4.329 14.31-5.658 18.217-7.808 22.783-10.408 36.865-16.047 65.492-1.3 6.058-2.383 10.384-3.469 13.882-4.114 11.928-8.218 21.472-13.202 32.748-2.169 5.42-4.997 11.928-7.389 19.297-12.645 38.823-26.453 94.336-37.178 140.623-5.876 24.944-11.06 46.2-16.05 65.96-1.955 8.23-4.551 17.036-7.6 26.802-2.598 8.456-5.86 17.566-9.537 27.085-4.115 10.848-8.229 21.031-12.997 29.707-.648 1.088-1.3 2.173-1.953 3.262-.436.216-.868.868-.65 1.3 1.089 2.602 4.771 7.39 12.188 15.615 9.088 9.763 20.363 21.915 33.397 35.35 18.644 20.364 40.157 39.691 61.11 54.221 15.184 10.624 30.796 20.383 45.128 29.709 7.599 5.426 14.081 9.759 18.649 12.419 2.816 1.297 3.7 2.383 1.738 2.599l-13.655-.651c-22.569-1.737-35.349-3.7-55.496-7.6-27.528-5.423-55.063-12.197-82.166-20.385-16.392-5.418-32.302-11.929-47.254-19.073-1.738-1.088-3.473-2.172-5.205-3.256-23.644-15.402-45.166-33.18-64.113-52.312-17.56-18.871-32.537-39.9-44.045-61.581-9.31-17.129-16.392-33.177-21.472-49.286-1.953-8.23-3.697-16.59-5.425-25.616-2.169-12.415-4.325-24.072-6.255-34.483-2.169-12.415-4.547-22.563-6.481-29.723-.218-1.517-1.086-3.26-2.381-5.206l-.216-.216c-12.419-16.599-24.717-31.198-36.861-43.904-2.816-2.602-5.204-4.547-7.599-6.165-5.867-3.471-10.405-5.878-13.66-7.158-.436-.216-1.295-.433-2.381-.65-3.903-1.301-7.371-2.382-9.97-3.257-11.493-3.7-19.729-6.045-26.166-7.806-14.322-3.471-22.117-6.939-30.804-9.323-23.62-7.597-42.093-14.529-55.066-21.687-12.994-7.373-20.152-15.4-25.173-21.026-1.298-1.737-2.383-3.256-3.475-4.77-10.85-14.979-16.173-29.706-16.389-44.235-.217-16.389 5.425-32.964 14.53-47.717 9.543-15.185 22.783-30.798 38.387-45.125 12.201-11.476 26.166-22.11 42.078-31.197 17.788-9.09 37.516-15.406 58.325-19.521 29.276-5.206 60.292-6.48 91.986-3.701 2.169.217 4.334.217 6.501.217 19.51 2.599 37.514 8.224 53.135 17.784 3.691 2.381 7.146 4.991 10.173 7.599.215.216.436.433.648.65 1.087 1.089 2.166 2.172 3.257 3.26 18.866 19.302 41.382 38.628 67.832 55.271 18.192 11.472 39.245 21.029 62.11 29.7 15.828 5.414 32.309 10.392 48.342 14.528 1.3.433 2.164.865 2.599 1.086 16.163 7.814 30.36 14.31 42.764 19.076 5.652 2.172 10.85 3.917 14.971 5.204 3.258.65 5.647 1.299 7.816 1.95 13.428 4.77 28.898 8.652 45.567 11.046 21.687 3.475 45.784 5.877 71.742 7.152 30.579 1.95 61.52.433 91.289-4.77 7.038-1.737 14.31-3.472 21.473-5.418 12.634-3.7 24.286-7.8 34.691-12.64 1.303-.216 2.383-.433 3.257-.65 8.888-2.381 15.61-4.993 20.374-7.805 1.084-.431 1.951-.864 2.383-1.084 11.265-5.425 18.655-11.709 22.332-17.345 2.602-4.997 3.91-10.619 3.692-15.61-.217-6.051-2.166-11.929-5.425-17.569-3.903-7.381-10.198-15.188-18.422-23.62-17.352-17.786-45.113-33.399-80.598-46.182-28.442-9.313-61.141-15.83-94.766-20.597-36.866-5.423-74.256-8.435-108.887-10.62-27.539-1.737-53.619-2.169-78.354-1.3-18.191.544-34.488 1.301-49.287 2.169-8.452.65-16.379 1.302-23.396 1.738-13.42.865-24.717.865-33.396 0-10.845-.217-21.69-.433-33.181-.216-15.83-.433-31.197-.65-47.264-.216-6.72-.65-13.65-1.304-20.597-1.086-14.973-2.599-29.274-4.548-42.55-1.518-10.405-3.26-20.157-5.425-29.273-2.169-10.628-4.771-19.952-7.81-27.982-1.298-3.262-2.382-6.483-3.69-9.31-1.086-3.473-2.164-6.936-3.256-10.622-1.737-6.72-3.7-13.436-5.646-19.95-1.738-7.376-3.695-13.214-5.878-17.345-1.086-2.384-2.603-4.324-4.325-5.873-1.304-1.299-2.166-2.384-3.262-3.69-2.598-2.599-5.423-4.998-8.883-7.803-1.303-.65-2.599-1.737-4.325-3.26-6.71-5.203-17.347-10.622-31.418-16.392-9.972-4.325-24.288-8.22-40.386-11.475-11.7-2.384-25.618-4.997-42.784-7.804-21.032-3.692-45.568-6.929-73.314-10.199-23.623-3.693-49.95-7.802-76.047-11.045-8.232-1.73-16.58-3.692-24.713-5.42-20.594-5.425-36.423-9.536-46.179-11.93-10.168-2.814-14.98-5.414-16.163-5.873-2.169-1.298-2.383-3.257-2.169-5.646 1.086-8.447 7.809-16.81 21.469-29.716 21.689-19.306 50.547-40.972 90.18-64.113 20.797-12.195 44.837-24.501 70.162-36.647 14.1-6.929 28.894-13.434 43.174-19.514 2.816-1.736 5.422-3.693 7.806-5.876 16.166-13.434 30.359-28.657 42.775-45.564 15.829-24.074 26.79-47.267 33.398-67.612 7.808-25.175 11.926-48.343 14.319-70.155 2.166-21.462 2.384-41.855.866-60.52-.648-15.185-2.599-29.498-5.425-42.77-1.302-7.806-3.257-15.18-5.646-21.926-3.257-10.62-7.815-19.069-13.662-26.149-4.113-5.876-8.881-10.192-14.313-13.436-5.204-3.04-10.628-5.875-15.617-8.223-7.597-3.69-14.529-7.154-20.159-10.405-20.16-11.928-31.63-19.295-36.861-22.783-4.999-4.998-9.539-8.223-13.87-10.63-3.693-2.381-6.934-3.69-9.323-4.548-1.298-.433-2.601-.864-3.69-1.298-11.712-4.11-20.768-7.808-27.528-10.631-7.146-3.048-11.476-5.875-13.662-8.225-2.384-2.381-3.695-4.544-4.547-6.717-.436-.65-.434-1.737 0-3.261 1.086-3.474 2.166-7.595 3.257-11.929 3.26-12.415 6.71-24.292 9.547-36.423 1.737-8.448 3.473-16.81 5.422-25.397 2.171-11.929 4.329-24.717 6.481-38.386 3.257-20.159 6.048-42.777 9.976-67.624 2.169-14.321 4.997-29.708 8.226-46.636 2.384-13.658 4.547-29.715 6.045-47.261.215-3.69.431-8.453.648-14.76.215-4.999.431-10.629.648-16.388.215-6.719.431-13"/>
  </g>
</svg>
