<svg width="600px" height="600px" viewBox="0 0 600 600" xmlns="http://www.w3.org/2000/svg" preserveAspectRatio="xMidYMid meet">
    <path d="M255.008 158.086c-1.535-4.649-5.556-7.887-10.756-8.664-2.452-.366-5.26-.21-8.583.475-5.792 1.195-10.089 1.65-13.225 1.738 11.837-19.985 21.462-42.775 27.003-64.228 8.96-34.689 4.172-50.492-1.423-57.64C233.217 10.847 211.614.683 185.552.372c-13.903-.17-26.108 2.575-32.475 4.549-5.928-1.046-12.302-1.63-18.99-1.738-12.537-.2-23.614 2.533-33.079 8.15-5.24-1.772-13.65-4.27-23.362-5.864-22.842-3.75-41.252-.828-54.718 8.685C6.622 25.672-.937 45.684.461 73.634c.444 8.874 5.408 35.874 13.224 61.48 4.492 14.718 9.282 26.94 14.237 36.33 7.027 13.315 14.546 21.156 22.987 23.972 4.731 1.576 13.327 2.68 22.368-4.85 1.146 1.388 2.675 2.767 4.704 4.048 2.577 1.625 5.728 2.953 8.875 3.74 11.341 2.835 21.964 2.126 31.027-1.848.056 1.612.099 3.152.135 4.482.06 2.157.12 4.272.199 6.25.537 13.374 1.447 23.773 4.143 31.049.148.4.347 1.01.557 1.657 1.345 4.118 3.594 11.012 9.316 16.411 5.925 5.593 13.092 7.308 19.656 7.308 3.292 0 6.433-.432 9.188-1.022 9.82-2.105 20.973-5.311 29.041-16.799 7.628-10.86 11.336-27.217 12.007-52.99.087-.729.167-1.425.244-2.088l.16-1.362 1.797.158.463.031c10.002.456 22.232-1.665 29.743-5.154 5.935-2.754 24.954-12.795 20.476-26.351"/><path d="M237.906 160.722c-29.74 6.135-31.785-3.934-31.785-3.934 31.4-46.593 44.527-105.736 33.2-120.211-30.904-39.485-84.399-20.811-85.292-20.327l-.287.052c-5.876-1.22-12.451-1.946-19.842-2.067-13.456-.22-23.664 3.528-31.41 9.402 0 0-95.43-39.314-90.991 49.444.944 18.882 27.064 142.873 58.218 105.422 11.387-13.695 22.39-25.274 22.39-25.274 5.464 3.63 12.006 5.482 18.864 4.817l.533-.452c-.166 1.7-.09 3.363.213 5.332-8.026 8.967-5.667 10.541-21.711 13.844-16.235 3.346-6.698 9.302-.471 10.86 7.549 1.887 25.013 4.561 36.813-11.958l-.47 1.885c3.144 2.519 5.352 16.383 4.982 28.952-.37 12.568-.617 21.197 1.86 27.937 2.479 6.74 4.948 21.905 26.04 17.386 17.623-3.777 26.756-13.564 28.027-29.89.901-11.606 2.942-9.89 3.07-20.267l1.637-4.912c1.887-15.733.3-20.809 11.157-18.448l2.64.232c7.99.363 18.45-1.286 24.589-4.139 13.218-6.134 21.058-16.377 8.024-13.686h.002" fill="#336791"/><path d="M247.802 160.025c-1.134-3.429-4.784-4.532-10.848-3.28-18.005 3.716-24.453 1.142-26.57-.417 13.995-21.32 25.508-47.092 31.719-71.137 2.942-11.39 4.567-21.968 4.7-30.59.147-9.463-1.465-16.417-4.789-20.665-13.402-17.125-33.072-26.311-56.882-26.563-16.369-.184-30.199 4.005-32.88 5.183-5.646-1.404-11.801-2.266-18.502-2.376-12.288"/>
</svg>
