<svg height="2500" preserveAspectRatio="xMidYMid" viewBox="0 0 255.993 264.54111152" width="2500" xmlns="http://www.w3.org/2000/svg">
  <path d="m128.902 2.393a124.702 124.702 0 0 0 -124.7 124.7 124.702 124.702 0 0 0 124.7 124.698 124.702 124.702 0 0 0 124.688-123.115l.01-1.584-.01-1.584a124.702 124.702 0 0 0 -124.688-123.115z" fill="#fff"/>
  <g fill="#afdad2" stroke="#fff" stroke-width=".25">
    <path d="m100.427 73.98a4.803 4.803 0 1 0 0-9.606 4.803 4.803 0 0 0 0 9.607zm-10.343 7.242a4.652 4.652 0 1 0 0-9.304 4.652 4.652 0 0 0 0 9.304zm-9.949 4.608a4.38 4.38 0 1 0 0-8.759 4.38 4.38 0 0 0 0 8.76zm29.017-17.571a4.946 4.946 0 1 0 0-9.891 4.946 4.946 0 0 0 0 9.89zm-36.482 7.186a3.323 3.323 0 1 0 0-6.647 3.323 3.323 0 0 0 0 6.647zm-8.205 18.204a3.948 3.948 0 1 0 0-7.896 3.948 3.948 0 0 0 0 7.896zm5.022-31.261a4.757 4.757 0 1 0 0-9.514 4.757 4.757 0 0 0 0 9.514zm12.837 8.903a3.68 3.68 0 1 0 0-7.358 3.68 3.68 0 0 0 0 7.358zm63.444-10.981a4.302 4.302 0 1 0 0-8.605 4.302 4.302 0 0 0 0 8.605zm-90.233 22.806a2.608 2.608 0 1 0 0-5.216 2.608 2.608 0 0 0 0 5.216zm8.665-2.456a3.095 3.095 0 1 0 0-6.188 3.095 3.095 0 0 0 0 6.189zm-15.801-9.805a4.103 4.103 0 1 0 0-8.205 4.103 4.103 0 0 0 0 8.205zm16.141-1.809a2.139 2.139 0 1 0 0-4.277 2.139 2.139 0 0 0 0 4.277zm28.635-3.334a3.992 3.992 0 1 0 0-7.985 3.992 3.992 0 0 0 0 7.985zm30.33 2.311a3.446 3.446 0 1 0 0-6.891 3.446 3.446 0 0 0 0 6.89zm6.307-21.496a2.255 2.255 0 1 0 0-4.51 2.255 2.255 0 0 0 0 4.51zm7.331 12.981a3.768 3.768 0 1 0 0-7.536 3.768 3.768 0 0 0 0 7.536zm-37.643-2.198a3.253 3.253 0 1 0 0-6.506 3.253 3.253 0 0 0 0 6.506zm2.01-21.77a3.535 3.535 0 1 0 0-7.071 3.535 3.535 0 0 0 0 7.071zm-5.1-10.176a3.61 3.61 0 1 0 0-7.22 3.61 3.61 0 0 0 0 7.22zm3.522-7.268a3.605 3.605 0 1 0 0-7.21 3.605 3.605 0 0 0 0 7.21zm7.603-4.108a4.47 4.47 0 1 0 0-8.94 4.47 4.47 0 0 0 0 8.94zm37.642-10.623a4.306 4.306 0 1 0 0-8.611 4.306 4.306 0 0 0 0 8.611zm-40.738 2.507a3.116 3.116 0 1 0 0-6.233 3.116 3.116 0 0 0 0 6.233zm-10.054 4.643a3.32 3.32 0 1 0 0-6.641 3.32 3.32 0 0 0 0 6.641zm-10.614 9.688a3.202 3.202 0 1 0 0-6.405 3.202 3.202 0 0 0 0 6.405zm-13.56-13.744a3.098 3.098 0 1 0 0-6.195 3.098 3.098 0 0 0 0 6.195zm-26.308-18.12a4.157 4.157 0 1 0 0-8.315 4.157 4.157 0 0 0 0 8.315zm-3.803 18.637a3.637 3.637 0 1 0 0-7.274 3.637 3.637 0 0 0 0 7.274zm2.69-15.732a3.575 3.575 0 1 0 0-7.15 3.575 3.575 0 0 0 0 7.15zm1.364-18.508a3.45 3.45 0 1 0 0-6.9 3.45 3.45 0 0 0 0 6.9zm-7.417 14.924a3.375 3.375 0 1 0 0-6.75 3.375 3.375 0 0 0 0 6.75zm-3.644-9.222a3.92 3.92 0 1 0 0-7.84 3.92 3.92 0 0 0 0 7.84zm-9.259-14.846a4.202 4.202 0 1 0 0-8.405 4.202 4.202 0 0 0 0 8.405zm-4.802-8.6a3.505 3.505 0 1 0 0-7.01 3.505 3.505 0 0 0 0 7.01zm-7.595-2.8a3.72 3.72 0 1 0 0-7.441 3.72 3.72 0 0 0 0 7.441zm-7.644-3.523a3.917 3.917 0 1 0 0-7.834 3.917 3.917 0 0 0 0 7.834zm-8.98-4.087a3.944 3.944 0 1 0 0-7.887 3.944 3.944 0 0 0 0 7.887zm-10.726-1.825a3.163 3.163 0 1 0 0-6.326 3.163 3.163 0 0 0 0 6.326zm-5.879-4.281a3.214 3.214 0 1 0 0-6.427 3.214 3.214 0 0 0 0 6.427zm-3.846-11.994a3.67 3.67 0 1 0 0-7.339 3.67 3.67 0 0 0 0 7.339zm-8.688-9.88a3.135 3.135 0 1 0 0-6.271 3.135 3.135 0 0 0 0 6.271zm-3.752-16.512a3.778 3.778 0 1 0 0-7.556 3.778 3.778 0 0 0 0 7.556zm-4.245-14.994a3.725 3.725 0 1 0 0-7.451 3.725 3.725 0 0 0 0 7.451zm-9.726-13.367a3.978 3.978 0 1 0 0-7.956 3.978 3.978 0 0 0 0 7.956zm-8.93-1.762a4.227 4.227 0 1 0 0-8.454 4.227 4.227 0 0 0 0 8.454zm-10.832-6.835a4.435 4.435 0 1 0 0-8.87 4.435 4.435 0 0 0 0 8.87zm-8.686-8.855a4.584 4.584 0 1 0 0-9.167 4.584 4.584 0 0 0 0 9.167zm-5.962-11.086a4.637 4.637 0 1 0 0-9.275 4.637 4.637 0 0 0 0 9.275zm-4.17-7.533a4.853 4.853 0 1 0 0-9.706 4.853 4.853 0 0 0 0 9.706zm-5.824-6.523a4.953 4.953 0 1 0 0-9.907 4.953 4.953 0 0 0 0 9.907zm-6.798-5.276a5.1 5.1 0 1 0 0-10.2 5.1 5.1 0 0 0 0 10.2zm-6.67-4.56a5.247 5.247 0 1 0 0-10.495 5.247 5.247 0 0 0 0 10.495zm-7.75-2.713a5.328 5.328 0 1 0 0-10.656 5.328 5.328 0 0 0 0 10.656zm-8.066-2.007a5.426 5.426 0 1 0 0-10.853 5.426 5.426 0 0 0 0 10.853zm-8.747-1.46a5.448 5.448 0 1 0 0-10.897 5.448 5.448 0 0 0 0 10.897zm-9.946-.625a5.502 5.502 0 1 0 0-11.005 5.502 5.502 0 0 0 0 11.005zm-10.85-.26a5.51 5.51 0 1 0 0-11.02 5.51 5.51 0 0 0 0 11.02zm-11.73-.224a5.53 5.53 0 1 0 0-11.06 5.53 5.53 0 0 0 0 11.06zm-12.225-.458a5.494 5.494 0 1 0 0-10.987 5.494 5.494 0 0 0 0 10.987zm-13.038-.87a5.5 5.5 0 1 0 0-11 5.5 5.5 0 0 0 0 11zm-13.73-.979a5.54 5.54 0 1 0 0-11.08 5.54 5.54 0 0 0 0 11.08zm-14.088-.707a5.51 5.51 0 1 0 0-11.02 5.51 5.51 0 0 0 0 11.02zm-13.712-.307a5.51 5.51 0 1 0 0-11.02 5.51 5.51 0 0 0 0 11.02zm-13.38.227a5.48 5.48 0 1 0 0-10.96 5.48 5.48 0 0 0 0 10.96zm-13.31.613a5.492 5.492 0 1 0 0-10.984 5.492 5.492 0 0 0 0 10.984zm-13.07 1.003a5.45 5.45 0 1 0 0-10.9 5.45 5.45 0 0 0 0 10.9zm-12.804 1.38a5.385 5.385 0 1 0 0-10.77 5.385 5.385 0 0 0 0 10.77zm-12.36 1.74a5.347 5.347 0 1 0 0-10.695 5.347 5.347 0 0 0 0 10.695zm-11.878 1.973a5.262 5.262 0 1 0 0-10.523 5.262 5.262 0 0 0 0 10.523zm-11.08 2.22a5.208 5.208 0 1 0 0-10.417 5.208 5.208 0 0 0 0 10.417zm-10.328 2.444a5.115 5.115 0 1 0 0-10.23 5.115 5.115 0 0 0 0 10.23zm-9.52 2.646a4.98 4.98 0 1 0 0-9.96 4.98 4.98 0 0 0 0 9.96zm-8.783 2.835a4.895 4.895 0 1 0 0-9.79 4.895 4.895 0 0 0 0 9.79zm-8.042 3.027a4.724 4.724 0 1 0 0-9.447 4.724 4.724 0 0 0 0 9.447zm-7.16 3.21a4.639 4.639 0 1 0 0-9.278 4.639 4.639 0 0 0 0 9.278zm-6.279 3.38a4.443 4.443 0 1 0 0-8.887 4.443 4.443 0 0 0 0 8.887zm-5.346 3.54a4.255 4.255 0 1 0 0-8.51 4.255 4.255 0 0 0 0 8.51zm-4.467 3.678a4.094 4.094 0 1 0 0-8.188 4.094 4.094 0 0 0 0 8.188zm-3.418 3.8a3.89 3.89 0 1 0 0-7.78 3.89 3.89 0 0 0 0 7.78zm-2.915 3.99a3.716 3.716 0 1 0 0-7.432 3.716 3.716 0 0 0 0 7.432zm-2.064 4.168a3.517 3.517 0 1 0 0-7.034 3.517 3.517 0 0 0 0 7.034zm-1.204 4.342a3.33 3.33 0 1 0 0-6.66 3.33 3.33 0 0 0 0 6.66zm-.694 4.5a3.117 3.117 0 1 0 0-6.234 3.117 3.117 0 0 0 0 6.234zm-.46 4.652a2.903 2.903 0 1 0 0-5.806 2.903 2.903 0 0 0 0 5.806zm-.296 4.76a2.693 2.693 0 1 0 0-5.386 2.693 2.693 0 0 0 0 5.386zm-.212 4.84a2.494 2.494 0 1 0 0-4.989 2.494 2.494 0 0 0 0 4.989zm-.224 4.893a2.296 2.296 0 1 0 0-4.593 2.296 2.296 0 0 0 0 4.593zm-.336 4.867a2.102 2.102 0 1 0 0-4.203 2.102 2.102 0 0 0 0 4.203zm-.554 4.735a1.917 1.917 0 1 0 0-3.835 1.917 1.917 0 0 0 0 3.835zm-.924 4.493a1.74 1.74 0 1 0 0-3.48 1.74 1.74 0 0 0 0 3.48zm-1.353 4.128a1.575 1.575 0 1 0 0-3.15 1.575 1.575 0 0 0 0 3.15zm-1.822 3.726a1.426 1.426 0 1 0 0-2.853 1.426 1.426 0 0 0 0 2.853zm-2.116 3.17a1.288 1.288 0 1 0 0-2.576 1.288 1.288 0 0 0 0 2.576zm-2.384 2.598a1.165 1.165 0 1 0 0-2.33 1.165 1.165 0 0 0 0 2.33zm-2.547 2.018a1.055 1.055 0 1 0 0-2.11 1.055 1.055 0 0 0 0 2.11zm-2.687 1.432a.959.959 0 1 0 0-1.918.959.959 0 0 0 0 1.918zm-2.79 1.825a.875.875 0 1 0 0-1.75.875.875 0 0 0 0 1.75zm-2.85 1.206a.802.802 0 1 0 0-1.603.802.802 0 0 0 0 1.603zm-2.863.978a.74.74 0 1 0 0-1.48.74.74 0 0 0 0 1.48zm-2.827.943a.688.688 0 1 0 0-1.376.688.688 0 0 0 0 1.376zm-2.743.9a.644.644 0 1 0 0-1.288.644.644 0 0 0 0 1.288zm-2.614.854a.608.608 0 1 0 0-1.216.608.608 0 0 0 0 1.216zm-2.433.808a.577.577 0 1 0 0-1.154.577.577 0 0 0 0 1.154zm-2.196.855a.552.552 0 1 0 0-1.103.552.552 0 0 0 0 1.103zm-1.901.883a.533.533 0 1 0 0-1.067.533.533 0 0 0 0 1.067zm-1.64.891a.52.52 0 1 0 0-1.041.52.52 0 0 0 0 1.041zm-1.406.872a.51.51 0 1 0 0-1.021.51.51 0 0 0 0 1.021zm-1.197.85a.504.504 0 1 0 0-1.007.504.504 0 0 0 0 1.007zm-.906.811a.501.501 0 1 0 0-.999.501.501 0 0 0 0 .999zm-.644.753a.5.5 0 1 0 0-.998.5.5 0 0 0 0 .998zm-.403.698a.5.5 0 1 0 0-.999.5.5 0 0 0 0 .999z"/>
  </g>
</svg>
